<svg id="Capa_1" enable-background="new 0 0 499.678 499.678" height="512" viewBox="0 0 499.678 499.678" width="512" xmlns="http://www.w3.org/2000/svg"><path d="m177.805 372.83c-3.121-1.115-6.554.512-7.669 3.632-1.115 3.121.512 6.554 3.632 7.669.043.015.085.03.128.044 5.946 2.049 19.693 7.7 18.913 15.941-.341 3.607-1.468 6.806-3.013 8.558-2.192 2.485-1.954 6.277.531 8.469s6.277 1.954 8.469-.531c4.391-4.979 5.618-11.763 5.96-15.365 1.526-16.121-16.23-24.724-26.951-28.417z"/><path d="m470.044 302.569c7.662-12.91 10.19-28.229 7.082-42.917-4.053-19.608-17.215-37.119-36.112-48.043-.932-.539-1.879-1.052-2.833-1.552 2.709-14.417.677-26.913-6.086-37.177-7.46-11.322-18.956-17.166-26.83-20.009 2.138-3.661 3.843-7.558 5.079-11.613 6-19.84 1.716-48.267-21.888-63.8-9.312-6.182-20.001-9.979-31.126-11.057-2.942-24.885-23.41-45.819-50.631-51.045-20.418-3.918-43.127 2.012-58.531 14.875-14.645-12.891-36.77-18.873-57.087-14.973-26.77 5.14-46.2 25.756-48.94 51.162-11.048 1.108-21.658 4.897-30.908 11.038-23.604 15.529-27.889 43.956-21.889 63.8 1.236 4.056 2.94 7.955 5.078 11.617-7.874 2.843-19.37 8.687-26.83 20.009-6.763 10.264-8.8 22.76-6.086 37.177-.954.5-1.9 1.013-2.833 1.552-18.9 10.924-32.059 28.435-36.112 48.043-3.107 14.686-.579 30.004 7.083 42.913-8.929 5.732-23.821 17.808-28.295 34.1-5.566 20.276 6.332 40.507 31.233 53.858-8.46 17.75-6.044 38.509 6.728 53.41 11.013 12.85 28.759 18.61 46.7 18.609 10.796.021 21.493-2.051 31.5-6.1 7.939 5.429 17.161 8.684 26.748 9.443 10.428.714 20.85-1.478 30.108-6.331 10.171 18.85 22.4 24.4 31.228 25.619 2.028.28 4.073.421 6.12.421 15.889 0 28.733-8.453 35.915-14.531 8.291 7.423 23.3 14.528 38.428 14.528 2.076.003 4.15-.137 6.207-.418 16.32-2.253 26.886-16.527 32.072-25.683 9.437 4.88 20.026 7.093 30.627 6.4 9.591-.825 18.796-4.159 26.692-9.666 10.15 4.197 21.03 6.346 32.013 6.324 17.943 0 35.691-5.76 46.7-18.609 12.772-14.9 15.188-35.66 6.728-53.41 24.9-13.351 36.8-33.582 31.233-53.858-4.464-16.298-19.356-28.374-28.285-34.106zm-165.609-275.511c21.509 4.134 37.809 20.138 40.777 39.25-.979.078-1.962.173-2.945.292-16.861 2.031-32.952 10.065-46.535 23.23-2.397 2.288-2.484 6.086-.196 8.483s6.086 2.484 8.483.196c.021-.021.043-.041.064-.062 23.2-22.484 53.727-26.787 77.777-10.965 17.639 11.606 21.9 34.087 17 50.3-1.683 5.411-4.375 10.456-7.934 14.866-2.058 2.597-1.621 6.371.976 8.429.79.626 1.724 1.043 2.718 1.212.182.031 18.275 3.261 27.458 17.2 4.585 6.959 6.167 15.585 4.75 25.692-20.69-6.976-43.2-6.27-63.412 1.99-2.588-6.783-5.797-13.313-9.586-19.506l17.243-20.807c1.969-2.375 1.816-5.857-.355-8.05l-29.509-29.813c-2.187-2.21-5.7-2.384-8.094-.4l-20.843 17.282c-10.111-6.114-21.056-10.728-32.492-13.7l-2.622-26.976c-.306-3.059-2.897-5.377-5.971-5.343h-17.343v-58.642c12.646-11.885 32.648-17.601 50.591-14.158zm37.726 289.288 16.545 19.954-22.135 22.091-19.962-16.552c-2.035-1.687-4.935-1.844-7.14-.385-11.102 7.355-23.486 12.561-36.508 15.349-2.544.517-4.455 2.632-4.711 5.215l-2.506 25.84h-16.6c-.419 0-.854-.146-1.3-.146s-.882.146-1.3.146h-12.23l-2.511-25.837c-.254-2.596-2.168-4.725-4.722-5.253-13.017-2.87-25.406-8.079-36.563-15.373-2.201-1.411-5.063-1.233-7.073.438l-19.962 16.557-22.139-22.089 16.545-19.953c1.691-2.039 1.844-4.946.377-7.152-7.368-11.08-12.594-23.443-15.406-36.449-.502-2.531-2.6-4.437-5.167-4.695l-25.849-2.512v-31.364l25.851-2.512c2.572-.254 4.684-2.143 5.221-4.671 2.898-13.002 8.12-25.374 15.413-36.521 1.431-2.205 1.259-5.085-.423-7.105l-16.553-19.954 22.132-22.091 19.96 16.552c2.035 1.687 4.934 1.843 7.139.385 11.102-7.355 23.486-12.561 36.508-15.349 2.544-.517 4.454-2.632 4.71-5.215l2.511-25.837h12.231c.419 0 .854.146 1.3.146s.882-.146 1.3-.146h16.6l2.51 25.837c.254 2.596 2.168 4.725 4.722 5.253 13.017 2.87 25.406 8.079 36.563 15.373 2.202 1.411 5.063 1.234 7.074-.438l19.931-16.535 21.819 22.041-16.566 19.979c-1.691 2.039-1.844 4.946-.377 7.152 7.368 11.08 12.594 23.443 15.406 36.449.501 2.533 2.598 4.441 5.167 4.7l25.851 2.507v31.37l-25.493 2.506c-2.569.257-4.678 2.145-5.215 4.671-2.898 13.002-8.119 25.374-15.412 36.521-1.427 2.208-1.25 5.088.437 7.105zm-264.596-136.788c9.088-13.879 27.34-17.243 27.506-17.272 3.267-.557 5.463-3.657 4.906-6.923-.169-.993-.586-1.928-1.212-2.718-3.559-4.41-6.251-9.455-7.934-14.866-4.905-16.209-.642-38.69 17-50.3 24.051-15.821 54.58-11.519 77.777 10.965 2.397 2.288 6.195 2.2 8.483-.197 2.264-2.371 2.205-6.121-.132-8.42-13.583-13.165-29.674-21.2-46.535-23.23-1.058-.128-2.114-.229-3.169-.309 2.751-19.5 18.112-35.163 39.092-39.191 17.563-3.375 36.673 2.085 48.5 13.645v59.116h-12.982c-3.076-.033-5.667 2.288-5.971 5.349l-2.621 27.013c-11.465 2.897-22.43 7.497-32.529 13.648l-20.805-17.26c-2.382-1.978-5.877-1.819-8.069.367l-29.873 29.811c-2.194 2.189-2.359 5.69-.381 8.076l17.268 20.826c-3.747 6.208-6.942 12.733-9.547 19.5-20.226-8.286-42.762-9.002-63.474-2.018-1.413-10.066.154-18.668 4.702-25.612zm129.679 293.736c-9.595-1.325-18.186-9.823-24.844-24.575-1.365-3.02-4.919-4.361-7.938-2.997-.263.119-.518.257-.762.413-9.122 5.843-18.974 8.542-28.492 7.794-5.341-.42-10.555-1.838-15.374-4.179 1.046-.735 2.069-1.489 3.04-2.282 8.719-7.214 14.831-17.089 17.397-28.11.834-3.207-1.089-6.483-4.296-7.317s-6.483 1.089-7.317 4.296c-.015.058-.029.116-.043.174-1.921 8.501-6.615 16.122-13.344 21.662-23.372 19.1-62.444 14.765-76.85-2.043-10.723-12.511-11.727-30.571-2.5-44.941 1.792-2.787.985-6.5-1.803-8.292-.239-.154-.489-.29-.747-.408-27.61-12.649-33.834-30.323-30.452-42.644 4.562-16.617 24.717-28.5 27.6-29.713 3.054-1.287 4.486-4.805 3.199-7.859-.187-.443-.426-.863-.713-1.249-8.392-11.116-11.562-25.32-8.695-38.949 3.361-16.26 14.429-30.87 30.367-40.083 20.006-11.565 46.144-12.75 67.912-3.374-.138.5-.29 1-.422 1.507l-27.018 2.633c-3.051.309-5.357 2.904-5.305 5.97v42.26c-.053 3.067 2.253 5.663 5.305 5.972l27.061 2.623c2.911 11.448 7.522 22.394 13.68 32.474l-17.26 20.801c-.507.612-.887 1.319-1.118 2.08-.549-.243-1.095-.5-1.632-.772-.632-.535-1.368-.933-2.161-1.168-9.638-5.718-16.445-15.207-18.771-26.17-.681-3.243-3.862-5.32-7.106-4.638s-5.32 3.862-4.638 7.105c2.123 9.959 7.12 19.077 14.373 26.225-6.271 2.882-11.168 7.785-13.2 13.859-2.746 8.23.01 17.3 7.193 23.674 2.467 2.213 6.26 2.006 8.473-.461s2.006-6.26-.461-8.473c-.016-.015-.033-.029-.049-.044-3.526-3.129-4.972-7.305-3.773-10.9 1.626-4.873 7.7-8.356 14.445-8.467 5.507 2.85 11.521 4.589 17.7 5.117l20.962 20.92c2.191 2.187 5.686 2.348 8.069.372l20.843-17.282c10.111 6.114 21.056 10.729 32.492 13.7l2.621 26.976c.306 3.06 2.898 5.38 5.973 5.346h12.979v60.325c-5.744 5.349-18.807 15.296-34.6 13.112zm249.075-90.8c-3.013 1.379-4.338 4.94-2.958 7.953.118.258.255.508.408.747 9.229 14.37 8.225 32.43-2.5 44.941-14.408 16.808-53.48 21.14-76.85 2.043-6.729-5.54-11.423-13.16-13.344-21.662-.738-3.23-3.955-5.251-7.186-4.513-3.23.738-5.251 3.955-4.513 7.186.013.058.027.116.043.174 2.569 11.022 8.684 20.896 17.406 28.107.863.7 1.765 1.38 2.687 2.04-4.822 2.468-10.079 3.97-15.477 4.421-13.008 1.02-23.719-4.447-28.945-7.794-2.79-1.787-6.501-.974-8.289 1.816-.157.245-.296.502-.416.768-9.388 20.8-22.086 24.068-25.754 24.575-15.112 2.087-31.535-6.737-36.77-12.891l-.017-.047v-60.5h17.343c3.076.034 5.667-2.288 5.971-5.349l2.622-27.013c11.465-2.897 22.43-7.498 32.529-13.648l20.806 17.26c2.381 1.977 5.876 1.818 8.068-.367l20.994-20.95c6.039-.57 11.913-2.296 17.3-5.085 6.757.11 12.817 3.6 14.444 8.469 1.2 3.594-.247 7.77-3.773 10.9-2.491 2.186-2.738 5.977-.552 8.467 2.186 2.491 5.977 2.738 8.467.552.016-.014.032-.028.048-.042 7.183-6.372 9.939-15.444 7.193-23.674-2.026-6.074-6.928-10.974-13.2-13.855 7.254-7.149 12.253-16.268 14.377-26.229.681-3.243-1.396-6.425-4.639-7.106s-6.425 1.396-7.106 4.639c-2.325 10.963-9.131 20.453-18.769 26.17-.793.235-1.528.633-2.159 1.168-.431.217-.865.425-1.3.624-.234-.705-.597-1.36-1.071-1.931l-17.269-20.827c6.11-10.1 10.73-21.029 13.716-32.449l26.66-2.624c3.05-.311 5.353-2.907 5.3-5.972v-42.258c.052-3.065-2.251-5.659-5.3-5.97l-27.061-2.623c-.131-.51-.252-1.011-.389-1.519 21.762-9.364 47.909-8.175 67.9 3.384 15.938 9.213 27.014 23.823 30.375 40.083 2.868 13.629-.301 27.833-8.692 38.949-1.976 2.66-1.421 6.418 1.239 8.394.387.287.806.527 1.25.714 2.884 1.218 23.04 13.1 27.6 29.713 3.378 12.319-2.841 29.993-30.451 42.642z"/><path d="m321.883 372.83c-17.305 5.961-28.136 18.367-26.952 30.872.55 4.831 2.639 9.358 5.96 12.91 2.192 2.485 5.984 2.723 8.469.531s2.723-5.984.531-8.469c-1.624-1.664-2.679-3.799-3.013-6.1-.542-5.716 5.781-13.871 18.913-18.395 3.145-1.044 4.849-4.439 3.805-7.584s-4.439-4.849-7.584-3.805c-.043.014-.086.029-.129.044z"/><path d="m249.874 161.949c-48.551.067-87.854 39.48-87.787 88.031s39.48 87.854 88.031 87.787c48.503-.067 87.787-39.406 87.787-87.909-.088-48.561-39.469-87.888-88.031-87.909zm0 163.818c-41.923-.067-75.854-34.108-75.787-76.031s34.108-75.854 76.031-75.787c41.876.067 75.787 34.033 75.787 75.909-.081 41.938-34.093 75.896-76.031 75.909z"/><path d="m237.426 269.786-26.619-20.128 26.619-20.129c2.657-1.98 3.206-5.739 1.226-8.396s-5.739-3.206-8.396-1.226c-.023.017-.045.034-.068.051l-32.944 24.914c-2.643 1.999-3.165 5.762-1.166 8.405.333.441.726.833 1.166 1.166l32.944 24.915c2.629 2.017 6.396 1.521 8.413-1.108s1.521-6.396-1.108-8.413c-.022-.016-.045-.033-.067-.051z"/><path d="m302.509 244.872-32.948-24.914c-2.629-2.017-6.395-1.522-8.413 1.107s-1.522 6.395 1.107 8.413c.022.017.045.034.068.051l26.621 20.129-26.619 20.129c-2.657 1.98-3.205 5.74-1.225 8.396 1.98 2.657 5.74 3.205 8.396 1.225.022-.017.044-.033.066-.05l32.948-24.914c2.643-1.999 3.165-5.762 1.166-8.405-.333-.441-.726-.833-1.166-1.166z"/><path d="m256.365 206.769c-3.275-.488-6.328 1.763-6.83 5.035l-11.248 74.312c-.497 3.277 1.756 6.336 5.033 6.833s6.336-1.756 6.833-5.033l11.248-74.312c.498-3.276-1.754-6.336-5.03-6.834-.002 0-.004 0-.006-.001z"/></svg>