<svg height="512pt" viewBox="0 0 512 512.00001" width="512pt" xmlns="http://www.w3.org/2000/svg"><path d="m280 304h-48c-4.253906.007812-7.765625-3.3125-8-7.558594l-1.601562-29.320312c-8.339844-2.449219-16.386719-5.804688-24-10l-21.933594 19.679687c-3.167969 2.835938-7.996094 2.703125-11-.304687l-33.921875-33.921875c-3.007813-3-3.140625-7.832031-.304688-11l19.640625-21.972657c-4.195312-7.613281-7.550781-15.660156-10-24l-29.320312-1.601562c-4.246094-.234375-7.566406-3.746094-7.558594-8v-48c-.007812-4.253906 3.3125-7.765625 7.558594-8l29.320312-1.601562c2.449219-8.339844 5.804688-16.386719 10-24l-19.640625-21.933594c-2.835937-3.167969-2.703125-7.996094.304688-11l33.921875-33.921875c3.003906-3.007813 7.832031-3.140625 11-.304688l21.933594 19.640625c7.613281-4.195312 15.660156-7.550781 24-10l1.601562-29.320312c.234375-4.246094 3.746094-7.5664065 8-7.558594h48c4.253906-.0078125 7.765625 3.3125 8 7.558594l1.601562 29.320312c8.339844 2.449219 16.386719 5.804688 24 10l21.910157-19.640625c3.164062-2.832031 7.988281-2.695312 10.992187.304688l33.921875 33.921875c3.027344 2.984375 3.191407 7.816406.375 11l-19.671875 21.933594c4.1875 7.617187 7.539063 15.664062 9.992188 24l29.320312 1.601562c4.246094.234375 7.566406 3.746094 7.558594 8v48c.007812 4.253906-3.3125 7.765625-7.558594 8l-29.320312 1.601562c-2.453125 8.335938-5.804688 16.382813-9.992188 24l19.671875 21.933594c2.835938 3.167969 2.703125 7.996094-.304687 11l-33.921875 33.921875c-3 3-7.828125 3.136719-10.988281.304688l-21.984376-19.640625c-7.613281 4.195312-15.660156 7.550781-24 10l-1.601562 29.320312c-.234375 4.246094-3.746094 7.566406-8 7.558594zm-40.425781-16h32.851562l1.511719-27.558594c.191406-3.539062 2.6875-6.527344 6.132812-7.34375 10.742188-2.5625 21.003907-6.824218 30.402344-12.625 3.015625-1.855468 6.890625-1.507812 9.527344.855469l20.601562 18.464844 23.199219-23.199219-18.480469-20.59375c-2.363281-2.640625-2.707031-6.519531-.847656-9.535156 5.796875-9.398438 10.0625-19.660156 12.632813-30.402344.820312-3.441406 3.808593-5.933594 7.34375-6.125l27.550781-1.511719v-32.851562l-27.550781-1.511719c-3.535157-.191406-6.523438-2.683594-7.34375-6.125-2.570313-10.742188-6.835938-21.003906-12.632813-30.402344-1.859375-3.015625-1.515625-6.894531.847656-9.535156l18.464844-20.59375-23.199218-23.199219-20.585938 18.464844c-2.636719 2.363281-6.511719 2.710937-9.527344.855469-9.398437-5.800782-19.660156-10.0625-30.402344-12.625-3.445312-.816406-5.941406-3.804688-6.132812-7.34375l-1.511719-27.558594h-32.851562l-1.511719 27.558594c-.191406 3.535156-2.683594 6.523437-6.125 7.34375-10.742188 2.5625-21.003906 6.824218-30.402344 12.625-3.015625 1.859375-6.898437 1.511718-9.535156-.855469l-20.574219-18.464844-23.203125 23.199219 18.449219 20.59375c2.367187 2.636719 2.714844 6.519531.855469 9.535156-5.800782 9.398438-10.0625 19.660156-12.625 30.402344-.820313 3.441406-3.808594 5.933594-7.34375 6.125l-27.558594 1.511719v32.851562l27.558594 1.511719c3.535156.191406 6.523437 2.683594 7.34375 6.125 2.5625 10.742188 6.824218 21.003906 12.625 30.402344 1.859375 3.015625 1.511718 6.898437-.855469 9.535156l-18.464844 20.59375 23.199219 23.199219 20.59375-18.464844c2.636719-2.367187 6.519531-2.714844 9.535156-.855469 9.398438 5.800782 19.660156 10.0625 30.402344 12.625 3.441406.820313 5.933594 3.808594 6.125 7.34375zm0 0"/><path d="m256 228c-44.183594 0-80-35.816406-80-80s35.816406-80 80-80 80 35.816406 80 80c-.046875 44.164062-35.835938 79.953125-80 80zm0-144c-35.347656 0-64 28.652344-64 64s28.652344 64 64 64 64-28.652344 64-64c-.039062-35.328125-28.671875-63.960938-64-64zm0 0"/><path d="m277.65625 177.65625-11.3125-11.3125 18.34375-18.34375-18.34375-18.34375 11.3125-11.3125 24 24c3.121094 3.125 3.121094 8.1875 0 11.3125zm0 0"/><path d="m234.34375 177.65625-24-24c-3.121094-3.125-3.121094-8.1875 0-11.3125l24-24 11.3125 11.3125-18.34375 18.34375 18.34375 18.34375zm0 0"/><path d="m320 512h-128c-8.835938 0-16-7.164062-16-16v-128h16v128h128v-128h16v128c0 8.835938-7.164062 16-16 16zm0 0"/><path d="m184 480h-32c-4.417969 0-8-3.582031-8-8v-112c0-2.121094.84375-4.15625 2.34375-5.65625l32-32c1.5-1.5 3.535156-2.34375 5.65625-2.34375h48c2.121094 0 4.15625.84375 5.65625 2.34375l24 24-11.3125 11.3125-21.65625-21.65625h-41.375l-27.3125 27.3125v100.6875h24zm0 0"/><path d="m288 368c-.65625.003906-1.308594-.078125-1.945312-.238281l-32-8 3.890624-15.523438 24.230469 6.058594 6.0625-24.242187 15.523438 3.890624-8 32c-.894531 3.558594-4.09375 6.054688-7.761719 6.054688zm0 0"/><path d="m224 368c-3.667969-.003906-6.859375-2.5-7.753906-6.054688l-8-32 15.523437-3.890624 6.0625 24.242187 24.230469-6.058594 3.890625 15.523438-32 8c-.640625.160156-1.296875.242187-1.953125.238281zm0 0"/><path d="m256 480c-2.121094 0-4.15625-.84375-5.65625-2.34375l-16-16c-1.652344-1.652344-2.5-3.941406-2.320312-6.273438l8-104 15.976562 1.234376-7.71875 100.328124 7.742188 7.742188 7.746093-7.742188-7.769531-100.328124 16-1.234376 8 104c.179688 2.332032-.667969 4.621094-2.320312 6.273438l-16 16c-1.503907 1.507812-3.550782 2.351562-5.679688 2.34375zm0 0"/><path d="m360 480h-32v-16h24v-100.6875l-27.3125-27.3125h-41.375l-21.65625 21.65625-11.3125-11.3125 24-24c1.5-1.5 3.535156-2.34375 5.65625-2.34375h48c2.121094 0 4.15625.84375 5.65625 2.34375l32 32c1.5 1.5 2.34375 3.535156 2.34375 5.65625v112c0 4.417969-3.582031 8-8 8zm0 0"/><path d="m504 512h-112c-4.417969 0-8-3.582031-8-8v-64c0-4.417969 3.582031-8 8-8h112c4.417969 0 8 3.582031 8 8v64c0 4.417969-3.582031 8-8 8zm-104-16h96v-48h-96zm0 0"/><path d="m416 464h16v16h-16zm0 0"/><path d="m448 464h32v16h-32zm0 0"/><path d="m456 440h-16v-68.6875l-85.65625-85.65625 11.3125-11.3125 88 88c1.5 1.5 2.34375 3.535156 2.34375 5.65625zm0 0"/><path d="m120 512h-112c-4.417969 0-8-3.582031-8-8v-64c0-4.417969 3.582031-8 8-8h112c4.417969 0 8 3.582031 8 8v64c0 4.417969-3.582031 8-8 8zm-104-16h96v-48h-96zm0 0"/><path d="m80 464h16v16h-16zm0 0"/><path d="m32 464h32v16h-32zm0 0"/><path d="m72 440h-16v-72c0-2.121094.84375-4.15625 2.34375-5.65625l88-88 11.3125 11.3125-85.65625 85.65625zm0 0"/><path d="m488 272h-16v-216c0-4.417969 3.582031-8 8-8h4.6875l-28.6875-28.6875-28.6875 28.6875h4.6875c4.417969 0 8 3.582031 8 8v144h-16v-136h-16c-3.234375 0-6.152344-1.949219-7.390625-4.9375s-.550781-6.429688 1.734375-8.71875l48-48c3.125-3.121094 8.1875-3.121094 11.3125 0l48 48c2.285156 2.289062 2.972656 5.730469 1.734375 8.71875s-4.15625 4.9375-7.390625 4.9375h-16zm0 0"/><path d="m424 216h16v16h-16zm0 0"/><path d="m40 272h-16v-208h-16c-3.234375 0-6.152344-1.949219-7.390625-4.9375s-.5507812-6.429688 1.734375-8.71875l48-48c3.125-3.121094 8.1875-3.121094 11.3125 0l48 48c2.285156 2.289062 2.972656 5.730469 1.734375 8.71875s-4.15625 4.9375-7.390625 4.9375h-16v136h-16v-144c0-4.417969 3.582031-8 8-8h4.6875l-28.6875-28.6875-28.6875 28.6875h4.6875c4.417969 0 8 3.582031 8 8zm0 0"/><path d="m72 216h16v16h-16zm0 0"/></svg>